<?xml version="1.0" standalone="no"?>
<!DOCTYPE svg PUBLIC "-//W3C//DTD SVG 20010904//EN"
 "http://www.w3.org/TR/2001/REC-SVG-20010904/DTD/svg10.dtd">
<svg version="1.0" xmlns="http://www.w3.org/2000/svg"
 width="1200.000000pt" height="1200.000000pt" viewBox="0 0 1200.000000 1200.000000"
 preserveAspectRatio="xMidYMid meet">
<metadata>
Created by potrace 1.11, written by Peter Selinger 2001-2013
</metadata>
<g transform="translate(0.000000,1200.000000) scale(0.100000,-0.100000)"
fill="#000000" stroke="none">
<path d="M5728 11245 c-2 -2 -53 -6 -113 -10 -61 -3 -117 -7 -125 -10 -8 -2
-46 -7 -85 -10 -38 -3 -81 -7 -95 -10 -14 -3 -41 -7 -60 -9 -56 -7 -171 -26
-215 -36 -22 -5 -60 -11 -84 -15 -23 -3 -53 -10 -65 -15 -13 -4 -40 -11 -62
-14 -21 -4 -57 -11 -79 -17 -22 -6 -47 -13 -55 -14 -43 -10 -238 -68 -335
-100 -60 -20 -114 -38 -120 -39 -5 -2 -19 -7 -30 -11 -11 -4 -65 -26 -120 -47
-55 -21 -113 -45 -130 -53 -16 -7 -82 -36 -145 -65 -104 -46 -296 -144 -392
-199 -21 -11 -53 -29 -70 -39 -66 -38 -186 -113 -292 -184 -417 -279 -851
-685 -1182 -1103 -43 -56 -88 -114 -99 -129 -11 -16 -29 -40 -41 -55 -104
-133 -307 -469 -427 -711 -120 -239 -261 -577 -292 -700 -1 -3 -4 -12 -8 -20
-6 -15 -65 -212 -72 -240 -86 -351 -134 -601 -150 -780 -4 -41 -8 -82 -10 -90
-20 -104 -27 -688 -11 -895 12 -159 23 -273 32 -319 2 -11 6 -42 9 -70 3 -28
8 -58 10 -66 2 -8 6 -33 10 -55 10 -67 53 -274 81 -385 14 -58 27 -109 28
-115 21 -84 120 -385 170 -515 158 -408 406 -858 669 -1215 45 -60 84 -112 87
-115 3 -3 32 -39 65 -80 96 -121 218 -255 374 -410 158 -157 180 -177 316
-290 50 -41 92 -78 95 -81 12 -14 293 -221 375 -276 305 -204 673 -395 1035
-537 269 -105 748 -236 1000 -272 19 -2 45 -7 57 -9 12 -3 39 -7 60 -10 21 -3
54 -7 73 -10 19 -2 64 -7 100 -10 36 -4 72 -8 80 -10 103 -26 872 -27 1031 0
13 2 50 6 83 10 32 3 90 10 130 15 39 6 86 12 103 14 18 3 56 9 85 15 29 6 64
13 78 15 41 8 212 45 255 56 22 6 49 13 60 15 11 3 61 16 110 30 50 14 97 28
105 30 38 9 287 98 390 138 440 173 884 422 1250 702 349 266 702 615 972 960
107 137 169 227 323 465 165 255 373 690 490 1020 32 93 113 363 120 401 3 15
10 40 15 54 5 14 12 40 15 56 3 17 14 68 24 112 10 45 22 98 25 117 3 19 8 46
11 60 18 88 43 259 51 350 3 41 8 83 10 93 25 132 25 873 0 1004 -2 10 -7 52
-11 93 -4 41 -9 84 -11 95 -2 11 -6 40 -9 65 -3 25 -7 56 -10 70 -3 14 -7 41
-10 60 -17 107 -77 375 -107 475 -11 39 -21 75 -23 80 -16 78 -97 315 -169
500 -54 136 -242 535 -286 605 -5 8 -37 62 -71 120 -56 96 -239 378 -264 407
-16 20 -26 33 -94 123 -61 80 -176 219 -266 320 -54 60 -305 311 -381 380
-473 429 -1064 788 -1674 1018 -100 37 -315 110 -352 118 -10 2 -26 6 -37 8
-10 2 -49 13 -87 24 -198 57 -563 127 -764 147 -30 3 -71 8 -90 10 -92 14
-771 31 -782 20z m547 -229 c93 -4 172 -9 175 -11 3 -1 39 -6 80 -9 74 -7 251
-31 300 -41 13 -2 42 -7 64 -11 38 -5 137 -26 286 -59 151 -34 485 -137 585
-180 17 -7 57 -23 90 -36 33 -12 88 -35 123 -51 34 -15 65 -28 67 -28 9 0 309
-149 395 -196 199 -110 556 -350 701 -472 172 -144 280 -243 414 -377 208
-207 276 -285 422 -475 115 -150 313 -439 313 -456 0 -3 8 -18 19 -32 96 -135
296 -548 396 -817 59 -157 154 -463 170 -545 2 -12 6 -29 9 -38 3 -9 7 -28 10
-42 3 -14 12 -59 21 -100 21 -95 24 -108 30 -145 3 -16 7 -43 10 -60 11 -63
34 -233 40 -295 3 -36 8 -76 10 -90 22 -127 22 -772 0 -889 -1 -9 -6 -52 -10
-95 -4 -43 -8 -86 -10 -95 -1 -9 -6 -38 -9 -66 -11 -84 -29 -190 -47 -285 -18
-93 -87 -370 -113 -455 -14 -44 -26 -84 -27 -90 -1 -5 -9 -30 -19 -55 -10 -25
-19 -49 -20 -55 -7 -26 -46 -140 -59 -170 -5 -11 -24 -56 -41 -100 -120 -296
-272 -582 -467 -875 -105 -159 -164 -241 -263 -364 -248 -311 -627 -673 -960
-917 -302 -222 -701 -444 -1045 -584 -49 -20 -99 -40 -110 -45 -57 -26 -335
-120 -405 -137 -22 -5 -29 -7 -93 -27 -103 -30 -339 -81 -477 -102 -19 -3 -60
-9 -90 -14 -115 -19 -100 -18 -285 -35 -278 -27 -745 -22 -985 10 -19 2 -60 7
-90 10 -30 3 -72 8 -92 11 -21 3 -51 7 -67 9 -17 2 -38 6 -48 9 -10 3 -36 7
-58 11 -275 39 -806 195 -1060 310 -16 8 -82 37 -145 65 -283 126 -576 298
-875 514 -94 68 -148 110 -294 231 -79 64 -260 235 -361 340 -210 218 -392
445 -567 705 -38 58 -78 119 -87 135 -9 17 -25 44 -35 60 -142 229 -311 582
-411 860 -18 50 -36 99 -40 110 -47 127 -150 513 -166 625 -3 19 -7 42 -9 50
-2 8 -7 29 -10 45 -2 17 -7 41 -10 55 -3 14 -8 45 -11 70 -2 25 -9 70 -14 100
-5 30 -12 87 -15 125 -4 39 -9 88 -11 110 -22 237 -22 668 0 890 13 118 18
162 21 175 2 8 6 42 10 75 5 47 47 288 59 340 1 6 8 37 15 70 96 452 311 994
571 1435 302 514 725 1001 1201 1383 166 133 458 331 619 421 47 26 96 54 110
62 74 44 406 201 507 240 38 14 77 30 88 35 102 47 511 172 635 195 14 3 50
11 80 19 30 7 69 16 85 19 17 2 55 9 85 15 30 6 69 13 85 16 17 2 41 7 54 10
13 2 49 7 80 10 31 4 63 8 71 10 8 3 44 7 80 10 36 3 83 7 105 10 22 2 94 7
160 11 66 3 121 7 122 8 4 3 290 -2 438 -8z"/>
<path d="M5160 7679 c-47 -21 -60 -54 -60 -154 l0 -85 900 0 900 0 0 85 c0 95
-13 133 -53 154 -19 10 -189 13 -838 14 -726 2 -817 0 -849 -14z"/>
<path d="M5100 6751 c0 -533 2 -620 15 -631 21 -18 1748 -18 1770 0 13 11 15
94 15 631 l0 619 -900 0 -900 -1 0 -618z m677 207 c68 -68 123 -127 123 -131
0 -12 -227 -230 -251 -241 -20 -10 -49 7 -49 29 0 6 46 57 102 113 l103 101
-98 99 c-89 91 -110 125 -90 145 18 18 46 -2 160 -115z m641 -320 c18 -15 15
-46 -5 -56 -10 -4 -125 -8 -255 -8 -205 1 -240 3 -254 17 -12 13 -14 21 -5 36
10 19 22 20 258 21 157 0 253 -4 261 -10z"/>
<path d="M5038 5327 l-67 -32 -3 -105 -3 -105 -71 -5 -70 -5 -2 -67 -2 -68 74
0 74 0 0 -219 c1 -232 5 -253 50 -294 48 -43 143 -57 241 -36 59 12 60 13 67
71 3 24 7 53 9 65 3 21 2 21 -34 8 -53 -18 -136 -14 -158 8 -16 16 -18 41 -20
207 l-2 190 118 0 117 0 0 68 -1 67 -116 5 -116 5 -1 130 c-1 157 0 145 -9
145 -5 -1 -38 -15 -75 -33z"/>
<path d="M5895 5329 c-101 -41 -182 -134 -225 -259 -32 -92 -37 -276 -11 -376
34 -132 105 -230 204 -281 45 -24 64 -27 142 -27 106 0 158 19 218 79 72 72
103 169 102 320 l0 90 -165 3 -166 2 1 -72 c0 -50 4 -73 13 -74 7 -1 44 -2 83
-3 l72 -1 -6 -49 c-13 -107 -65 -155 -159 -148 -33 3 -67 13 -81 23 -130 98
-150 439 -34 579 50 61 126 82 186 50 29 -14 75 -63 84 -87 3 -10 19 -5 60 17
96 51 94 49 61 92 -42 56 -94 103 -134 120 -56 25 -185 26 -245 2z"/>
<path d="M3232 5283 c-11 -32 -32 -94 -46 -138 -34 -106 -192 -591 -221 -680
l-22 -70 75 -3 c41 -2 81 -1 87 2 6 2 22 42 35 88 36 129 18 118 188 118 l148
0 30 -102 29 -103 88 -3 c48 -1 87 -1 87 1 0 2 -16 51 -35 108 -44 128 -94
284 -105 324 -5 17 -44 138 -88 270 l-79 240 -75 3 -75 3 -21 -58z m123 -273
c9 -30 18 -62 20 -70 3 -12 24 -80 52 -172 5 -16 -4 -18 -102 -18 -106 0 -106
0 -99 23 36 112 69 224 83 280 14 59 17 64 23 40 3 -15 14 -53 23 -83z"/>
<path d="M4297 5074 c-29 -9 -65 -32 -92 -58 l-45 -43 0 54 0 53 -145 0 -145
0 0 -70 0 -69 72 -3 73 -3 0 -202 0 -203 -72 0 -73 0 0 -70 0 -70 245 0 c226
0 245 1 246 18 1 20 1 103 0 115 -1 4 -44 7 -97 7 l-96 0 4 148 c3 146 4 149
32 186 34 45 81 68 152 74 l51 4 0 -54 c1 -92 -5 -85 76 -84 l72 1 1 128 1
127 -46 14 c-63 18 -156 18 -214 0z"/>
<path d="M7867 5075 c-28 -10 -66 -33 -92 -59 l-45 -43 0 54 0 53 -144 0 -145
0 -3 -27 c-2 -16 -1 -47 1 -70 l3 -43 72 0 71 0 0 -205 0 -205 -71 0 -72 0 -3
-37 c-2 -21 -3 -53 -1 -70 l3 -33 245 0 244 0 1 25 c1 14 1 36 1 50 0 70 7 65
-97 65 l-95 0 0 126 c0 70 5 144 12 166 21 70 109 124 191 116 l32 -3 0 -60
c0 -33 5 -63 10 -66 6 -3 39 -6 75 -5 l65 1 2 127 3 126 -33 12 c-53 19 -176
22 -230 5z"/>
<path d="M6595 4833 c1 -163 5 -263 13 -291 16 -52 62 -107 114 -133 80 -41
220 -33 285 17 22 16 33 21 34 12 1 -7 2 -20 3 -28 1 -12 18 -16 77 -18 l76
-3 -1 343 -1 343 -75 0 -75 0 -1 -217 c-1 -189 -4 -221 -20 -255 -49 -99 -218
-97 -260 2 -11 26 -14 86 -14 255 l0 220 -78 0 -79 0 2 -247z"/>
<path d="M8375 4833 c1 -273 7 -312 57 -369 48 -54 101 -77 185 -80 79 -3 121
8 170 43 17 13 33 23 36 23 2 0 2 -13 -1 -30 l-4 -30 80 0 80 0 0 345 -1 345
-76 0 -77 0 -1 -218 c-1 -244 -8 -276 -65 -312 -43 -28 -146 -24 -178 5 -45
40 -50 74 -50 306 l0 219 -78 0 -79 0 2 -247z"/>
</g>
</svg>
